<?xml version="1.0" encoding="utf-8" ?><svg xmlns="http://www.w3.org/2000/svg" xmlns:xlink="http://www.w3.org/1999/xlink" width="1024" height="1024" viewBox="0 0 1024 1024"><path transform="scale(2 2)" d="M373.16 145.008C376.163 125.585 392.204 98.8806 412.416 94.8077C414.928 94.5414 417.455 96.9277 418.691 98.8468C432.57 120.396 407.247 168.669 402.276 192.077L402.189 192.493C403.261 193.232 404.628 194.001 405.769 194.597C426.548 205.445 432.78 218.464 438.395 239.067C473.699 266.763 435.704 290.73 407.934 275.912C398.788 271.033 388.423 264.636 379.181 271.891C376.509 275.119 373.396 284.905 371.148 289.354C362.164 307.135 356.739 313.166 343.539 326.397C346.014 347.936 354.095 351.877 372.303 351.06C388.98 350.312 406.254 347.115 422.251 353.725C440.81 361.398 432.045 371.686 416.616 366.342C414.374 371.27 411.621 383.516 410.614 384.735C406.008 390.31 400.026 382.267 394.83 380.969C390.003 379.764 387.213 379.865 382.379 380.322C387.021 383.222 399.02 395.254 392.888 400.482C388.597 404.141 384.73 397.815 380.8 397.732C373.199 399.122 371.934 407.254 368.596 412.58C365.423 417.644 358.908 413.106 358.745 405.694C350.239 402.684 339.507 397.918 330.827 394.534L310.124 386.358C291.113 378.69 279.278 370.029 278.202 346.638C257.119 341.501 229.013 330.9 213.413 314.749C202.424 323.034 194.374 326.676 181.972 331.55C173.691 344.42 145.322 372.287 146.434 339.511C146.879 326.387 147.596 307.472 161.479 301.5C169.441 298.338 175.788 293.926 183.335 290.401C148.888 291.5 125.613 329.262 79.4685 309.658C46.1474 295.502 29.4923 253.719 40.5964 219.908C43.7941 210.172 50.7461 207.061 53.4232 216.874C51.4184 224.139 49.0502 228.719 49.6887 236.597C51.5925 260.085 75.0468 274.149 96.9255 272.893C126.671 271.187 140.278 245.675 157.729 225.789C199.381 178.325 246 186.535 291.06 225.375C300.334 233.369 311.029 248.929 323.949 248.307C334.778 247.785 338.526 233.149 343.367 225.339C348.489 217.077 353.681 209.16 360.092 201.694C336.205 181.76 321.582 147.7 334.226 117.699C338.662 107.402 342.109 106.814 348.707 114.719C355.466 122.818 362.395 130.799 368.615 139.327C370.062 141.312 371.372 143.309 373.16 145.008ZM351.379 135.386C343.859 125.994 342.669 120.322 341.442 135.52C340.559 146.457 342.097 157.432 347.167 167.267C351.292 178.597 363.217 190.977 373.29 197.371C377.609 200.113 380.09 202.298 379.431 194.978C377.456 173.033 365.322 151.983 351.379 135.386ZM373.16 210.612C371.854 209.833 370.917 209.215 369.678 208.332C353.263 219.664 349.002 253.268 330.034 258.57C312.443 263.487 299.907 250.341 288.947 239.123C262.774 212.334 220.518 191.165 185.536 215.545C158.091 234.223 146.988 270.174 114.159 281.118C96.7164 286.933 80.7108 284.919 64.2708 277.106C61.364 274.975 58.1937 272.654 54.9242 271.133C57.2085 274.262 59.1909 277.589 61.5336 280.683C76.6175 300.605 98.8294 307.537 122.551 300.635C146.652 293.623 166.352 275.113 194.44 278.86C221.574 282.48 180.463 305.308 173.546 308.701C170.338 310.275 165.906 311.412 163.448 314.067C158.098 319.844 157.759 333.812 157.66 341.113C164.925 336.921 169.43 330.41 171.131 322.276C173.203 322.238 176.9 321.114 178.915 320.421C201.835 312.229 243.72 281.439 243.595 253.936C243.467 225.659 205.638 234.361 214.448 222.348C216.746 220.329 222.961 220.314 225.551 220.562C252.693 223.16 262.41 254.546 248.543 277.303C247.49 279.031 245.747 281.578 244.858 283.346C237.546 293.597 232.007 299.382 222.441 307.603C236.5 320.323 260.161 330.936 278.202 334.869C278.526 327.075 280.816 314.739 283.956 307.603C284.428 302.714 292.902 282.031 300.037 283.392C304.335 284.212 304.674 286.842 304.168 290.401C291.325 308.04 280.033 351.256 299.714 368.495C304.909 373.492 352.732 389.624 363.852 394.959C365.631 392.841 367.624 391.121 369.678 389.291C357.837 385.331 320.102 369.951 314.157 360.504C308.356 349.356 316.278 317.918 319.562 306.696C321.033 301.668 320.98 288.759 329.824 293.657C331.323 294.506 332.173 296.951 332.422 298.753C331.603 300.571 327.615 320.23 326.715 323.875C343.396 315.297 356.23 295.366 363.14 278.701C364.018 276.584 366.534 273.162 364.919 271.133C361.297 265.359 377.979 259.28 381.261 258.265C397.826 253.122 408.903 266.728 424.256 268.983C430.159 269.85 440.286 267.644 440.919 260.162C441.524 253.024 432.795 249.858 428.705 245.803C426.605 243.721 426.812 236.23 425.445 233.316C420.452 219.189 406.318 203.033 390.888 201.694C387.091 208.873 381.962 214.479 373.16 210.612ZM410.309 107.986C391.746 117.53 381.408 142.941 382.501 162.945C382.516 163.218 388.462 180.756 389.193 184.046C389.695 186.72 390.225 188.079 390.888 190.552C396.393 168.633 415.361 128.372 410.659 108.275L410.309 107.986ZM332.422 334.869C329.976 335.957 326.076 337.9 323.748 338.725C323.785 347.635 321.742 356.118 331.262 360.475C336.557 362.898 351.607 370.586 357.023 370.494C369.052 370.29 384.281 365.82 395.851 370.161C398.915 370.221 399.329 370.483 402.189 371.705C401.933 368.644 401.958 364.793 402.189 361.711C394.548 361.453 386.622 361.906 379.065 362.342C356.094 363.667 341.588 362.744 334.033 338.085C333.796 337.31 333.395 334.834 332.422 334.869Z"/><path fill="#FECA04" transform="scale(2 2)" d="M351.379 135.386C365.322 151.983 377.456 173.033 379.431 194.978C380.09 202.298 377.609 200.113 373.29 197.371C363.217 190.977 351.292 178.597 347.167 167.267C347.369 165.589 346.2 161.16 345.874 159.111C344.89 152.921 348.225 140.68 351.379 135.386Z"/><path transform="scale(2 2)" d="M328.521 208.332C328.076 207.988 323.107 196.865 322.156 195.127C313.118 178.61 301.81 162.674 286.433 151.496C284.287 149.936 280.142 147.713 278.843 146.288C284.254 146.764 290.79 149.577 295.353 152.323C315.851 164.657 323.061 186.592 328.521 208.332Z"/><path transform="scale(2 2)" d="M235.87 159.492C237.343 159.524 238.764 159.51 240.236 159.492C270.288 155.629 303.13 196.566 314.157 220.285C313.566 219.642 312.985 218.721 312.483 217.986C286.033 191.352 275.934 173.176 235.87 159.492Z"/><path fill="#FECA04" transform="scale(2 2)" d="M373.16 210.612C381.962 214.479 387.091 208.873 390.888 201.694C406.318 203.033 420.452 219.189 425.445 233.316C426.812 236.23 426.605 243.721 428.705 245.803C432.795 249.858 441.524 253.024 440.919 260.162C440.286 267.644 430.159 269.85 424.256 268.983C408.903 266.728 397.826 253.122 381.261 258.265C377.979 259.28 361.297 265.359 364.919 271.133C358.688 278.835 341.98 294.711 332.422 298.753C332.173 296.951 331.323 294.506 329.824 293.657C320.98 288.759 321.033 301.668 319.562 306.696C316.278 317.918 308.356 349.356 314.157 360.504C320.102 369.951 357.837 385.331 369.678 389.291C367.624 391.121 365.631 392.841 363.852 394.959C352.732 389.624 304.909 373.492 299.714 368.495C299.925 367.34 299.483 365.56 299.23 364.399C294.932 344.638 297.117 323.691 304.46 304.907C306.015 300.931 307.954 297.299 309.219 293.287C307.402 290.758 307.388 290.388 304.168 290.401C304.674 286.842 304.335 284.212 300.037 283.392C292.902 282.031 284.428 302.714 283.956 307.603C269.905 299.563 258.17 292.744 244.858 283.346C245.747 281.578 247.49 279.031 248.543 277.303C262.41 254.546 252.693 223.16 225.551 220.562C222.961 220.314 216.746 220.329 214.448 222.348C205.638 234.361 243.467 225.659 243.595 253.936C243.72 281.439 201.835 312.229 178.915 320.421C176.9 321.114 173.203 322.238 171.131 322.276C169.43 330.41 164.925 336.921 157.66 341.113C157.759 333.812 158.098 319.844 163.448 314.067C165.906 311.412 170.338 310.275 173.546 308.701C180.463 305.308 221.574 282.48 194.44 278.86C166.352 275.113 146.652 293.623 122.551 300.635C98.8294 307.537 76.6175 300.605 61.5336 280.683C59.1909 277.589 57.2085 274.262 54.9242 271.133C58.1937 272.654 61.364 274.975 64.2708 277.106C64.5086 278.507 67.408 280.912 68.5983 281.707C98.9785 301.852 132.66 288.707 154.735 263.19C168.91 246.908 180.072 228.434 200.772 219.623C232.165 206.26 266.094 222.187 289.719 243.29C301.543 253.851 313.997 271.523 332.187 268.437C353.613 264.801 361.066 227.624 372.996 210.838L373.16 210.612ZM395.851 217.986C382.099 219.375 396.418 244.605 412.416 234.403C416.332 231.449 419.145 225.885 412.129 223.729C409.39 222.888 405.212 228.792 402.216 224.872C399.727 222.19 400.849 216.945 395.851 217.986Z"/><path transform="scale(2 2)" d="M412.416 234.403C396.418 244.605 382.099 219.375 395.851 217.986C400.849 216.945 399.727 222.19 402.216 224.872C405.212 228.792 409.39 222.888 412.129 223.729C419.145 225.885 416.332 231.449 412.416 234.403Z"/><path fill="#FECA04" transform="scale(2 2)" d="M323.748 338.725C326.076 337.9 329.976 335.957 332.422 334.869C333.395 334.834 333.796 337.31 334.033 338.085C341.588 362.744 356.094 363.667 379.065 362.342C386.622 361.906 394.548 361.453 402.189 361.711C401.958 364.793 401.933 368.644 402.189 371.705C399.329 370.483 398.915 370.221 395.851 370.161C384.281 365.82 369.052 370.29 357.023 370.494C351.607 370.586 336.557 362.898 331.262 360.475C321.742 356.118 323.785 347.635 323.748 338.725Z"/></svg>